<?xml version="1.0" encoding="utf-8"?>
<!-- Generator: Adobe Illustrator 24.1.3, SVG Export Plug-In . SVG Version: 6.00 Build 0)  -->
<svg version="1.1" id="Layer_1" xmlns="http://www.w3.org/2000/svg" xmlns:xlink="http://www.w3.org/1999/xlink" x="0px" y="0px"
	 viewBox="0 0 180 70" style="enable-background:new 0 0 180 70;" xml:space="preserve">
<style type="text/css">
	.st0{clip-path:url(#SVGID_2_);fill:url(#SVGID_3_);}
	.st1{clip-path:url(#SVGID_2_);}
	.st2{fill:#29ABE2;}
	.st3{font-family:'Orbitron-Bold';}
	.st4{font-size:45.8519px;}
	.st5{letter-spacing:7.08;}
	.st6{letter-spacing:4.72;}
	.st7{clip-path:url(#SVGID_2_);fill:url(#SVGID_4_);}
	.st8{opacity:0.5;fill:#FFFFFF;}
	.st9{font-family:'CourierNewPSMT';}
	.st10{font-size:7.3554px;}
	.st11{letter-spacing:1.44;}
</style>
<g>
	<defs>
		<rect id="SVGID_1_" x="-70" y="0" width="249.5" height="70.5"/>
	</defs>
	<clipPath id="SVGID_2_">
		<use xlink:href="#SVGID_1_"  style="overflow:visible;"/>
	</clipPath>
	
		<linearGradient id="SVGID_3_" gradientUnits="userSpaceOnUse" x1="30.6192" y1="101.3344" x2="30.6222" y2="101.3315" gradientTransform="matrix(1849.2671 0 0 -1853.3918 -56650.4023 187871.6406)">
		<stop  offset="0" style="stop-color:#FFE052"/>
		<stop  offset="1" style="stop-color:#FFC331"/>
	</linearGradient>
	<path class="st0" d="M-24.95,64.6c-1.68,0-3.05-1.37-3.05-3.06c0,0,0,0,0-0.01c0-1.69,1.36-3.07,3.04-3.07c0,0,0,0,0.01,0
		c1.68,0,3.05,1.37,3.05,3.06c0,0,0,0,0,0.01C-21.89,63.23-23.26,64.6-24.95,64.6C-24.94,64.6-24.94,64.6-24.95,64.6L-24.95,64.6z"
		/>
	<g class="st1">
		<text transform="matrix(0.8468 0.0444 -0.0523 0.9986 69.4805 45.624)" class="st2 st3 st4 st5">P</text>
		<text transform="matrix(0.8479 0 0 1 106.3979 46.4551)" class="st2 st3 st4 st6">B</text>
		<text transform="matrix(0.8468 -0.0444 0.0523 0.9986 144.9517 47.2012)" class="st2 st3 st4 st5">T</text>
	</g>
	<linearGradient id="SVGID_4_" gradientUnits="userSpaceOnUse" x1="0" y1="64" x2="182" y2="64">
		<stop  offset="0" style="stop-color:#387EB8"/>
		<stop  offset="1" style="stop-color:#29ABE2"/>
	</linearGradient>
	<rect y="58" class="st7" width="182" height="12"/>
	<g class="st1">
		<text transform="matrix(1.3706 -0.2417 0.191 1.0833 4.2373 65.9873)"><tspan x="0" y="0" class="st8 st9 st10 st11">p</tspan><tspan x="6.14" y="1.37" class="st8 st9 st10 st11">y</tspan><tspan x="12.29" y="2.74" class="st8 st9 st10 st11">t</tspan><tspan x="18.43" y="4.11" class="st8 st9 st10 st11">h</tspan><tspan x="24.58" y="5.48" class="st8 st9 st10 st11">o</tspan><tspan x="30.72" y="6.85" class="st8 st9 st10 st11">n</tspan><tspan x="36.87" y="8.22" class="st8 st9 st10 st11"> </tspan><tspan x="43.01" y="9.6" class="st8 st9 st10 st11">b</tspan><tspan x="49.15" y="10.97" class="st8 st9 st10 st11">u</tspan><tspan x="55.3" y="12.34" class="st8 st9 st10 st11">i</tspan><tspan x="61.44" y="13.71" class="st8 st9 st10 st11">l</tspan><tspan x="67.59" y="15.08" class="st8 st9 st10 st11">d</tspan><tspan x="73.73" y="16.45" class="st8 st9 st10 st11"> </tspan><tspan x="79.88" y="17.82" class="st8 st9 st10 st11">t</tspan><tspan x="86.02" y="19.19" class="st8 st9 st10 st11">o</tspan><tspan x="92.16" y="20.56" class="st8 st9 st10 st11">o</tspan><tspan x="98.31" y="21.93" class="st8 st9 st10 st11">l</tspan><tspan x="104.45" y="23.3" class="st8 st9 st10 st11">s</tspan></text>
	</g>
	<g class="st1">
		<polygon class="st2" points="57.49,23.7 57.03,40.31 41.65,46.96 45.19,49.06 62.79,43.16 65.1,28.2 		"/>
		<polygon class="st2" points="41.78,21.85 49.81,19.15 57.49,23.7 57.65,17.72 33.12,6 7.97,16.87 7.9,19.56 23.16,13.02 		"/>
		<polygon class="st2" points="26.71,48.72 31.88,51.18 41.65,46.96 37.1,44.27 		"/>
		<polygon class="st2" points="7.9,19.56 2.02,22.08 1.5,40.91 22.12,50.68 26.71,48.72 7.35,39.46 		"/>
		<polygon class="st2" points="29.9,40.01 37.1,44.27 43.26,41.62 43.78,22.79 41.78,21.85 32.21,25.05 		"/>
	</g>
</g>
</svg>
